<?xml version="1.0" standalone="no"?>
<!DOCTYPE svg PUBLIC "-//W3C//DTD SVG 20010904//EN"
 "http://www.w3.org/TR/2001/REC-SVG-20010904/DTD/svg10.dtd">
<svg version="1.0" xmlns="http://www.w3.org/2000/svg"
 width="337.000000pt" height="310.000000pt" viewBox="0 0 337.000000 310.000000"
 preserveAspectRatio="xMidYMid meet">
<metadata>
Created by potrace 1.16, written by Peter Selinger 2001-2019
</metadata>
<g transform="translate(0.000000,310.000000) scale(0.100000,-0.100000)"
fill="#000000" stroke="none">
<path d="M1990 2831 c-407 -151 -643 -259 -1020 -463 -109 -59 -138 -80 -150
-106 -13 -28 -46 -48 -258 -154 -279 -141 -337 -179 -337 -223 l0 -30 62 2
c52 1 87 12 215 66 417 177 875 348 1258 470 237 76 421 130 425 125 2 -2 -87
-36 -198 -77 -640 -233 -1251 -486 -1357 -561 -69 -49 -11 -109 92 -96 61 8
306 92 617 212 134 52 245 93 247 91 2 -1 -74 -36 -169 -76 -366 -158 -812
-370 -874 -417 -39 -29 -61 -87 -42 -110 11 -13 25 -15 74 -9 101 11 168 32
474 151 162 63 296 113 298 111 2 -2 -30 -16 -69 -32 -216 -83 -721 -333 -738
-365 -15 -29 -12 -76 8 -99 l17 -22 105 16 c163 26 217 40 490 130 442 145
659 212 870 269 227 61 509 128 522 124 4 -2 -72 -32 -170 -67 -1055 -377
-1526 -560 -1654 -643 -36 -23 -48 -36 -48 -55 0 -16 7 -27 20 -30 19 -5 19
-6 -5 -35 -28 -34 -33 -76 -9 -85 26 -10 169 25 339 84 558 191 1090 333 1590
422 279 50 335 58 335 51 0 -31 -330 -189 -935 -448 -797 -341 -928 -403 -945
-445 -7 -21 -169 -86 -580 -233 l-65 -24 34 30 c37 32 267 175 416 259 50 28
173 86 275 129 453 194 932 440 962 495 16 31 -20 58 -64 47 -68 -17 -547
-250 -886 -431 -114 -62 -241 -127 -282 -146 -41 -19 -86 -44 -100 -57 -14
-12 -87 -60 -163 -107 -179 -109 -251 -164 -287 -219 -34 -52 -35 -54 -16 -73
26 -25 103 -2 521 155 220 82 454 169 520 193 66 24 132 48 148 54 15 6 27 9
27 7 0 -2 -46 -31 -102 -64 -57 -33 -176 -107 -265 -163 -89 -57 -194 -121
-233 -142 -76 -40 -90 -58 -69 -83 18 -21 59 -12 115 26 24 17 107 60 183 95
371 170 676 285 1281 479 470 152 647 219 663 253 15 33 -14 63 -62 63 -30 0
-529 -97 -596 -116 -11 -3 -28 -8 -37 -10 -14 -4 -18 1 -18 25 0 57 -30 51
-232 -42 -101 -47 -217 -97 -258 -113 -87 -32 -223 -75 -226 -71 -2 1 203 90
454 196 251 107 540 234 641 283 163 79 191 96 243 149 47 48 59 66 56 87 -2
22 -11 30 -45 42 -38 13 -54 12 -155 -4 -497 -81 -1038 -210 -1508 -360 -129
-41 -236 -73 -237 -72 -5 4 382 157 582 230 229 83 636 215 915 296 118 35
227 69 243 77 31 15 38 59 11 70 -15 6 -287 -70 -604 -168 -85 -26 -156 -46
-157 -45 -2 2 45 20 104 41 449 157 695 259 708 293 8 21 -21 61 -50 68 -14 4
-38 4 -53 1 -619 -132 -974 -230 -1729 -478 -188 -62 -370 -109 -413 -108 -19
0 135 79 360 184 221 103 496 211 1070 419 575 208 605 220 671 259 49 29 54
36 54 67 l0 35 -50 -2 c-85 -2 -658 -177 -1080 -328 -126 -46 -385 -144 -575
-218 -337 -132 -462 -178 -484 -176 -17 0 224 121 444 221 283 130 654 286
1063 447 449 177 497 200 497 242 0 25 -32 40 -72 33 -18 -3 -148 -42 -288
-86 -257 -81 -556 -187 -1015 -361 -137 -52 -261 -98 -275 -101 l-25 -7 25 15
c75 42 550 226 1150 446 343 125 470 191 470 245 0 35 -32 49 -94 41 -85 -11
-536 -137 -740 -206 -50 -16 -91 -30 -93 -30 -2 0 -3 7 -3 16 0 14 -8 16 -57
10 -31 -4 -55 -5 -52 -2 2 2 85 41 183 86 318 144 487 237 494 273 6 31 -17
47 -67 46 -30 0 -99 -20 -201 -58z m-465 -425 c-88 -30 -245 -86 -350 -125
-104 -38 -191 -69 -192 -67 -4 3 316 147 377 168 72 26 269 76 300 77 14 1
-47 -24 -135 -53z m790 -1635 c-381 -128 -694 -240 -808 -290 -79 -34 -68 -24
38 35 182 102 439 226 505 246 151 43 613 147 655 147 11 -1 -164 -63 -390
-138z"/>
</g>
</svg>
