<?xml version="1.0" standalone="no"?>
<!DOCTYPE svg PUBLIC "-//W3C//DTD SVG 20010904//EN"
 "http://www.w3.org/TR/2001/REC-SVG-20010904/DTD/svg10.dtd">
<svg version="1.0" xmlns="http://www.w3.org/2000/svg"
 width="359.000000pt" height="321.000000pt" viewBox="0 0 359.000000 321.000000"
 preserveAspectRatio="xMidYMid meet">
<metadata>
Created by potrace 1.16, written by Peter Selinger 2001-2019
</metadata>
<g transform="translate(0.000000,321.000000) scale(0.100000,-0.100000)"
fill="#000000" stroke="none">
<path d="M2183 3186 c-23 -8 -74 -36 -114 -64 -62 -43 -74 -48 -86 -36 -11 10
-19 11 -34 3 -15 -8 -26 -5 -50 11 -75 54 -142 43 -179 -30 -23 -46 -24 -70
-5 -125 13 -35 12 -41 -2 -57 -9 -10 -20 -18 -24 -18 -4 0 -24 27 -43 59 -20
32 -43 62 -52 65 -28 11 -69 6 -93 -11 -23 -16 -24 -19 -17 -117 4 -56 8 -115
9 -132 2 -27 -10 -41 -133 -144 -409 -344 -934 -958 -918 -1073 2 -17 10 -22
33 -22 25 0 51 25 203 195 96 107 278 311 405 453 l232 258 11 -44 c6 -25 15
-50 19 -56 4 -8 -104 -124 -292 -314 -355 -360 -669 -711 -715 -800 -21 -41
-13 -67 21 -67 25 0 121 88 317 289 252 260 734 699 752 687 6 -3 13 -17 16
-31 6 -22 -39 -70 -442 -472 -433 -432 -701 -719 -790 -846 -46 -67 -49 -78
-27 -97 32 -26 86 18 325 262 267 273 599 575 830 755 87 68 160 123 163 123
3 0 10 -29 17 -65 l12 -65 -73 -66 c-133 -120 -497 -495 -658 -679 -151 -173
-328 -392 -350 -434 -23 -43 -3 -111 34 -111 32 0 181 123 350 289 317 311
731 680 746 664 4 -4 9 -24 11 -44 3 -36 -1 -41 -242 -268 -135 -127 -326
-307 -425 -400 -165 -154 -350 -349 -384 -405 -16 -26 -9 -56 13 -56 8 0 99
88 203 196 235 245 412 405 662 602 l196 154 7 -34 c4 -18 9 -62 13 -98 l5
-65 -97 -80 c-234 -193 -744 -678 -743 -707 0 -25 34 -40 62 -29 13 5 102 77
196 159 179 156 554 462 591 481 18 10 22 8 36 -26 24 -57 63 -93 100 -93 39
0 77 27 245 170 136 116 439 369 563 469 l78 63 62 -68 c40 -42 68 -65 75 -60
24 14 13 73 -23 126 -19 29 -35 55 -35 59 0 3 27 28 61 55 l60 49 48 -22 c40
-19 55 -21 92 -14 55 11 70 41 51 106 -19 62 -19 68 -1 80 14 9 29 0 80 -45
77 -67 98 -78 142 -78 89 0 90 99 1 222 -19 28 -34 51 -32 52 2 2 48 34 103
73 121 85 143 108 129 130 -33 52 -83 35 -208 -72 -88 -76 -83 -76 -162 -6
l-38 34 40 31 c75 59 164 149 164 166 0 10 -7 23 -15 30 -19 16 -99 -11 -227
-77 l-87 -45 -61 48 c-33 26 -60 50 -60 54 0 3 30 28 67 56 37 27 105 80 151
118 71 58 83 72 80 95 -3 23 -8 26 -46 29 -39 3 -58 -6 -203 -92 -88 -53 -164
-96 -168 -96 -15 0 -85 75 -125 134 l-40 58 38 35 c28 26 36 42 34 62 -4 34
-34 38 -87 12 -22 -12 -43 -21 -46 -21 -8 0 -195 256 -234 320 -19 30 -47 72
-63 93 l-30 37 30 38 c47 60 82 120 82 141 0 16 -28 43 -42 40 -2 0 -22 -6
-45 -13z m-625 -618 l22 -52 -62 -63 -62 -63 -31 29 c-16 16 -37 31 -45 33
-11 3 9 29 64 86 44 45 82 82 86 82 3 0 16 -23 28 -52z m493 -213 c22 -37 38
-69 37 -70 -15 -12 -89 -55 -95 -55 -5 0 -21 34 -38 76 l-29 77 35 28 c19 15
38 24 42 20 4 -4 26 -39 48 -76z m408 -136 l65 -82 -30 -23 c-16 -13 -32 -24
-35 -24 -8 0 -119 157 -119 169 0 9 38 41 50 41 3 0 34 -37 69 -81z m-657 -48
l37 -48 -96 -66 -97 -67 -28 43 -29 42 78 72 c43 40 83 72 88 72 6 0 27 -21
47 -48z m-407 22 c5 -13 -5 -27 -37 -53 -58 -48 -355 -316 -452 -409 -44 -42
-1 7 95 108 174 183 366 371 380 371 4 0 10 -8 14 -17z m939 -59 c31 -42 56
-80 56 -84 0 -9 -69 -54 -75 -49 -2 2 -24 39 -50 83 l-46 79 22 23 c12 13 26
24 30 24 4 0 33 -34 63 -76z m-106 -79 c23 -41 42 -79 42 -85 0 -5 -18 -22
-41 -37 l-40 -27 -65 65 -65 65 58 47 c32 26 60 47 63 47 3 0 24 -34 48 -75z
m-313 -15 c21 -24 30 -13 -88 -114 -42 -37 -82 -64 -87 -61 -5 3 -18 19 -30
34 l-20 29 92 66 c51 36 98 65 104 66 6 0 19 -9 29 -20z m-431 -135 c5 -29 0
-34 -104 -114 -182 -139 -291 -230 -437 -361 -264 -239 18 56 377 393 94 89
147 132 151 124 4 -6 9 -25 13 -42z m529 -12 c14 -38 27 -73 29 -80 2 -6 -33
-39 -77 -73 l-80 -62 -23 29 c-78 95 -77 92 -56 113 45 44 160 139 170 139 6
1 23 -29 37 -66z m-231 -259 c19 -21 18 -22 -49 -73 -37 -29 -72 -53 -78 -54
-5 -1 -14 32 -21 73 l-11 75 40 36 41 36 30 -36 c16 -20 38 -46 48 -57z m983
-67 c0 -5 -26 -25 -59 -45 l-58 -37 -34 40 c-19 22 -34 43 -34 47 0 3 26 25
57 47 l57 40 35 -41 c20 -23 36 -46 36 -51z m-309 -4 c-14 -15 -151 -113 -157
-113 -7 0 -39 73 -39 90 0 5 28 27 62 49 l62 39 38 -31 c21 -17 36 -32 34 -34z
m-897 -60 c9 -61 9 -79 -1 -89 -7 -6 -80 -69 -163 -139 -170 -146 -345 -308
-618 -572 -103 -101 -197 -188 -209 -194 -30 -16 114 170 287 371 145 169 664
700 683 700 5 0 15 -35 21 -77z m320 23 l22 -24 -113 -96 c-106 -91 -113 -96
-119 -74 -18 63 -13 73 79 147 48 39 92 71 98 71 6 0 21 -11 33 -24z m691 -61
c7 -8 10 -18 7 -21 -3 -3 -54 -36 -114 -74 l-108 -68 -18 40 c-11 23 -15 43
-10 47 4 3 46 34 92 69 l83 62 27 -20 c15 -10 34 -26 41 -35z m-502 -128 l42
-43 -137 -110 c-75 -60 -162 -130 -193 -156 -30 -26 -58 -48 -61 -48 -4 0 -10
28 -13 63 -4 34 -10 74 -13 88 -5 24 7 35 154 138 87 61 163 111 168 111 6 0
30 -19 53 -43z m114 -104 c10 -9 18 -19 18 -23 0 -4 -44 -36 -97 -71 -54 -35
-160 -107 -235 -161 -76 -53 -140 -93 -143 -88 -8 13 404 357 429 359 5 1 18
-6 28 -16z m116 -96 c21 -12 14 -20 -165 -172 -271 -231 -336 -285 -344 -285
-9 0 -49 82 -49 101 0 21 493 366 525 368 6 0 20 -5 33 -12z"/>
</g>
</svg>
